<mxfile host="app.diagrams.net" modified="2021-04-06T08:07:03.836Z" agent="5.0 (X11)" etag="Ubf9TBNXMbqe9L58HlvT" version="14.5.7" type="github">
  <diagram id="C5RBs43oDa-KdzZeNtuy" name="Page-1">
    <mxGraphModel dx="8900" dy="4523" grid="1" gridSize="10" guides="1" tooltips="1" connect="1" arrows="1" fold="1" page="1" pageScale="1" pageWidth="827" pageHeight="1169" math="0" shadow="0">
      <root>
        <mxCell id="WIyWlLk6GJQsqaUBKTNV-0" />
        <mxCell id="WIyWlLk6GJQsqaUBKTNV-1" parent="WIyWlLk6GJQsqaUBKTNV-0" />
        <mxCell id="y8SY3zgBV_V-2ngHkjji-3" value="User" style="swimlane;fontStyle=1;align=center;verticalAlign=top;childLayout=stackLayout;horizontal=1;startSize=26;horizontalStack=0;resizeParent=1;resizeParentMax=0;resizeLast=0;collapsible=1;marginBottom=0;" parent="WIyWlLk6GJQsqaUBKTNV-1" vertex="1">
          <mxGeometry x="186" y="-224" width="296" height="372" as="geometry" />
        </mxCell>
        <mxCell id="y8SY3zgBV_V-2ngHkjji-4" value="- id: Long" style="text;strokeColor=none;fillColor=none;align=left;verticalAlign=top;spacingLeft=4;spacingRight=4;overflow=hidden;rotatable=0;points=[[0,0.5],[1,0.5]];portConstraint=eastwest;" parent="y8SY3zgBV_V-2ngHkjji-3" vertex="1">
          <mxGeometry y="26" width="296" height="26" as="geometry" />
        </mxCell>
        <mxCell id="y8SY3zgBV_V-2ngHkjji-26" value="- name: String" style="text;strokeColor=none;fillColor=none;align=left;verticalAlign=top;spacingLeft=4;spacingRight=4;overflow=hidden;rotatable=0;points=[[0,0.5],[1,0.5]];portConstraint=eastwest;" parent="y8SY3zgBV_V-2ngHkjji-3" vertex="1">
          <mxGeometry y="52" width="296" height="26" as="geometry" />
        </mxCell>
        <mxCell id="y8SY3zgBV_V-2ngHkjji-27" value="- username: String" style="text;strokeColor=none;fillColor=none;align=left;verticalAlign=top;spacingLeft=4;spacingRight=4;overflow=hidden;rotatable=0;points=[[0,0.5],[1,0.5]];portConstraint=eastwest;" parent="y8SY3zgBV_V-2ngHkjji-3" vertex="1">
          <mxGeometry y="78" width="296" height="26" as="geometry" />
        </mxCell>
        <mxCell id="y8SY3zgBV_V-2ngHkjji-28" value="- password: String" style="text;strokeColor=none;fillColor=none;align=left;verticalAlign=top;spacingLeft=4;spacingRight=4;overflow=hidden;rotatable=0;points=[[0,0.5],[1,0.5]];portConstraint=eastwest;" parent="y8SY3zgBV_V-2ngHkjji-3" vertex="1">
          <mxGeometry y="104" width="296" height="26" as="geometry" />
        </mxCell>
        <mxCell id="y8SY3zgBV_V-2ngHkjji-30" value="- phoneNumber: String" style="text;strokeColor=none;fillColor=none;align=left;verticalAlign=top;spacingLeft=4;spacingRight=4;overflow=hidden;rotatable=0;points=[[0,0.5],[1,0.5]];portConstraint=eastwest;" parent="y8SY3zgBV_V-2ngHkjji-3" vertex="1">
          <mxGeometry y="130" width="296" height="26" as="geometry" />
        </mxCell>
        <mxCell id="y8SY3zgBV_V-2ngHkjji-31" value="- address: String" style="text;strokeColor=none;fillColor=none;align=left;verticalAlign=top;spacingLeft=4;spacingRight=4;overflow=hidden;rotatable=0;points=[[0,0.5],[1,0.5]];portConstraint=eastwest;" parent="y8SY3zgBV_V-2ngHkjji-3" vertex="1">
          <mxGeometry y="156" width="296" height="26" as="geometry" />
        </mxCell>
        <mxCell id="y8SY3zgBV_V-2ngHkjji-34" value="- roles: Set&lt;Role&gt;" style="text;strokeColor=none;fillColor=none;align=left;verticalAlign=top;spacingLeft=4;spacingRight=4;overflow=hidden;rotatable=0;points=[[0,0.5],[1,0.5]];portConstraint=eastwest;" parent="y8SY3zgBV_V-2ngHkjji-3" vertex="1">
          <mxGeometry y="182" width="296" height="26" as="geometry" />
        </mxCell>
        <mxCell id="y8SY3zgBV_V-2ngHkjji-33" value="- status: UserStatus" style="text;strokeColor=none;fillColor=none;align=left;verticalAlign=top;spacingLeft=4;spacingRight=4;overflow=hidden;rotatable=0;points=[[0,0.5],[1,0.5]];portConstraint=eastwest;" parent="y8SY3zgBV_V-2ngHkjji-3" vertex="1">
          <mxGeometry y="208" width="296" height="26" as="geometry" />
        </mxCell>
        <mxCell id="y8SY3zgBV_V-2ngHkjji-32" value="- cart: Cart" style="text;strokeColor=none;fillColor=none;align=left;verticalAlign=top;spacingLeft=4;spacingRight=4;overflow=hidden;rotatable=0;points=[[0,0.5],[1,0.5]];portConstraint=eastwest;" parent="y8SY3zgBV_V-2ngHkjji-3" vertex="1">
          <mxGeometry y="234" width="296" height="26" as="geometry" />
        </mxCell>
        <mxCell id="y8SY3zgBV_V-2ngHkjji-29" value="- order: Set&lt;Order&gt;" style="text;strokeColor=none;fillColor=none;align=left;verticalAlign=top;spacingLeft=4;spacingRight=4;overflow=hidden;rotatable=0;points=[[0,0.5],[1,0.5]];portConstraint=eastwest;" parent="y8SY3zgBV_V-2ngHkjji-3" vertex="1">
          <mxGeometry y="260" width="296" height="26" as="geometry" />
        </mxCell>
        <mxCell id="y8SY3zgBV_V-2ngHkjji-5" value="" style="line;strokeWidth=1;fillColor=none;align=left;verticalAlign=middle;spacingTop=-1;spacingLeft=3;spacingRight=3;rotatable=0;labelPosition=right;points=[];portConstraint=eastwest;" parent="y8SY3zgBV_V-2ngHkjji-3" vertex="1">
          <mxGeometry y="286" width="296" height="8" as="geometry" />
        </mxCell>
        <mxCell id="y8SY3zgBV_V-2ngHkjji-6" value="+ User()&#xa;" style="text;strokeColor=none;fillColor=none;align=left;verticalAlign=top;spacingLeft=4;spacingRight=4;overflow=hidden;rotatable=0;points=[[0,0.5],[1,0.5]];portConstraint=eastwest;" parent="y8SY3zgBV_V-2ngHkjji-3" vertex="1">
          <mxGeometry y="294" width="296" height="26" as="geometry" />
        </mxCell>
        <mxCell id="y8SY3zgBV_V-2ngHkjji-50" value="+ User(String, String, String, String, String, String)&#xa;" style="text;strokeColor=none;fillColor=none;align=left;verticalAlign=top;spacingLeft=4;spacingRight=4;overflow=hidden;rotatable=0;points=[[0,0.5],[1,0.5]];portConstraint=eastwest;" parent="y8SY3zgBV_V-2ngHkjji-3" vertex="1">
          <mxGeometry y="320" width="296" height="26" as="geometry" />
        </mxCell>
        <mxCell id="y8SY3zgBV_V-2ngHkjji-35" value="+ Getters &amp; Setters " style="text;strokeColor=none;fillColor=none;align=left;verticalAlign=top;spacingLeft=4;spacingRight=4;overflow=hidden;rotatable=0;points=[[0,0.5],[1,0.5]];portConstraint=eastwest;" parent="y8SY3zgBV_V-2ngHkjji-3" vertex="1">
          <mxGeometry y="346" width="296" height="26" as="geometry" />
        </mxCell>
        <mxCell id="y8SY3zgBV_V-2ngHkjji-55" value="&lt;div&gt;&amp;lt;&amp;lt;enum&amp;gt;&amp;gt;&lt;br&gt;&lt;/div&gt;&lt;div&gt;RoleName&lt;/div&gt;" style="swimlane;fontStyle=1;align=center;verticalAlign=middle;childLayout=stackLayout;horizontal=1;startSize=29;horizontalStack=0;resizeParent=1;resizeParentMax=0;resizeLast=0;collapsible=0;marginBottom=0;html=1;" parent="WIyWlLk6GJQsqaUBKTNV-1" vertex="1">
          <mxGeometry x="760" y="-98" width="140" height="104" as="geometry" />
        </mxCell>
        <mxCell id="y8SY3zgBV_V-2ngHkjji-56" value="ROLE_CUSTOMER" style="text;html=1;strokeColor=none;fillColor=none;align=left;verticalAlign=middle;spacingLeft=4;spacingRight=4;overflow=hidden;rotatable=0;points=[[0,0.5],[1,0.5]];portConstraint=eastwest;" parent="y8SY3zgBV_V-2ngHkjji-55" vertex="1">
          <mxGeometry y="29" width="140" height="25" as="geometry" />
        </mxCell>
        <mxCell id="y8SY3zgBV_V-2ngHkjji-57" value="ROLE_ADMIN" style="text;html=1;strokeColor=none;fillColor=none;align=left;verticalAlign=middle;spacingLeft=4;spacingRight=4;overflow=hidden;rotatable=0;points=[[0,0.5],[1,0.5]];portConstraint=eastwest;" parent="y8SY3zgBV_V-2ngHkjji-55" vertex="1">
          <mxGeometry y="54" width="140" height="25" as="geometry" />
        </mxCell>
        <mxCell id="y8SY3zgBV_V-2ngHkjji-58" value="ROLE_EMPLOYEE" style="text;html=1;strokeColor=none;fillColor=none;align=left;verticalAlign=middle;spacingLeft=4;spacingRight=4;overflow=hidden;rotatable=0;points=[[0,0.5],[1,0.5]];portConstraint=eastwest;" parent="y8SY3zgBV_V-2ngHkjji-55" vertex="1">
          <mxGeometry y="79" width="140" height="25" as="geometry" />
        </mxCell>
        <mxCell id="y8SY3zgBV_V-2ngHkjji-59" value="UserPayload" style="swimlane;fontStyle=1;align=center;verticalAlign=top;childLayout=stackLayout;horizontal=1;startSize=26;horizontalStack=0;resizeParent=1;resizeParentMax=0;resizeLast=0;collapsible=1;marginBottom=0;" parent="WIyWlLk6GJQsqaUBKTNV-1" vertex="1">
          <mxGeometry x="614" y="-442" width="296" height="190" as="geometry" />
        </mxCell>
        <mxCell id="y8SY3zgBV_V-2ngHkjji-61" value="- name: String" style="text;strokeColor=none;fillColor=none;align=left;verticalAlign=top;spacingLeft=4;spacingRight=4;overflow=hidden;rotatable=0;points=[[0,0.5],[1,0.5]];portConstraint=eastwest;" parent="y8SY3zgBV_V-2ngHkjji-59" vertex="1">
          <mxGeometry y="26" width="296" height="26" as="geometry" />
        </mxCell>
        <mxCell id="y8SY3zgBV_V-2ngHkjji-62" value="- username: String" style="text;strokeColor=none;fillColor=none;align=left;verticalAlign=top;spacingLeft=4;spacingRight=4;overflow=hidden;rotatable=0;points=[[0,0.5],[1,0.5]];portConstraint=eastwest;" parent="y8SY3zgBV_V-2ngHkjji-59" vertex="1">
          <mxGeometry y="52" width="296" height="26" as="geometry" />
        </mxCell>
        <mxCell id="y8SY3zgBV_V-2ngHkjji-64" value="- phoneNumber: String" style="text;strokeColor=none;fillColor=none;align=left;verticalAlign=top;spacingLeft=4;spacingRight=4;overflow=hidden;rotatable=0;points=[[0,0.5],[1,0.5]];portConstraint=eastwest;" parent="y8SY3zgBV_V-2ngHkjji-59" vertex="1">
          <mxGeometry y="78" width="296" height="26" as="geometry" />
        </mxCell>
        <mxCell id="y8SY3zgBV_V-2ngHkjji-65" value="- address: String" style="text;strokeColor=none;fillColor=none;align=left;verticalAlign=top;spacingLeft=4;spacingRight=4;overflow=hidden;rotatable=0;points=[[0,0.5],[1,0.5]];portConstraint=eastwest;" parent="y8SY3zgBV_V-2ngHkjji-59" vertex="1">
          <mxGeometry y="104" width="296" height="26" as="geometry" />
        </mxCell>
        <mxCell id="y8SY3zgBV_V-2ngHkjji-66" value="- role: String" style="text;strokeColor=none;fillColor=none;align=left;verticalAlign=top;spacingLeft=4;spacingRight=4;overflow=hidden;rotatable=0;points=[[0,0.5],[1,0.5]];portConstraint=eastwest;" parent="y8SY3zgBV_V-2ngHkjji-59" vertex="1">
          <mxGeometry y="130" width="296" height="26" as="geometry" />
        </mxCell>
        <mxCell id="y8SY3zgBV_V-2ngHkjji-70" value="" style="line;strokeWidth=1;fillColor=none;align=left;verticalAlign=middle;spacingTop=-1;spacingLeft=3;spacingRight=3;rotatable=0;labelPosition=right;points=[];portConstraint=eastwest;" parent="y8SY3zgBV_V-2ngHkjji-59" vertex="1">
          <mxGeometry y="156" width="296" height="8" as="geometry" />
        </mxCell>
        <mxCell id="y8SY3zgBV_V-2ngHkjji-73" value="+ Getters &amp; Setters " style="text;strokeColor=none;fillColor=none;align=left;verticalAlign=top;spacingLeft=4;spacingRight=4;overflow=hidden;rotatable=0;points=[[0,0.5],[1,0.5]];portConstraint=eastwest;" parent="y8SY3zgBV_V-2ngHkjji-59" vertex="1">
          <mxGeometry y="164" width="296" height="26" as="geometry" />
        </mxCell>
        <mxCell id="y8SY3zgBV_V-2ngHkjji-74" value="SignUpRequest" style="swimlane;fontStyle=1;align=center;verticalAlign=top;childLayout=stackLayout;horizontal=1;startSize=26;horizontalStack=0;resizeParent=1;resizeParentMax=0;resizeLast=0;collapsible=1;marginBottom=0;" parent="WIyWlLk6GJQsqaUBKTNV-1" vertex="1">
          <mxGeometry x="-1053" y="-110" width="296" height="190" as="geometry" />
        </mxCell>
        <mxCell id="y8SY3zgBV_V-2ngHkjji-75" value="- name: String" style="text;strokeColor=none;fillColor=none;align=left;verticalAlign=top;spacingLeft=4;spacingRight=4;overflow=hidden;rotatable=0;points=[[0,0.5],[1,0.5]];portConstraint=eastwest;" parent="y8SY3zgBV_V-2ngHkjji-74" vertex="1">
          <mxGeometry y="26" width="296" height="26" as="geometry" />
        </mxCell>
        <mxCell id="y8SY3zgBV_V-2ngHkjji-76" value="- username: String" style="text;strokeColor=none;fillColor=none;align=left;verticalAlign=top;spacingLeft=4;spacingRight=4;overflow=hidden;rotatable=0;points=[[0,0.5],[1,0.5]];portConstraint=eastwest;" parent="y8SY3zgBV_V-2ngHkjji-74" vertex="1">
          <mxGeometry y="52" width="296" height="26" as="geometry" />
        </mxCell>
        <mxCell id="y8SY3zgBV_V-2ngHkjji-77" value="- phoneNumber: String" style="text;strokeColor=none;fillColor=none;align=left;verticalAlign=top;spacingLeft=4;spacingRight=4;overflow=hidden;rotatable=0;points=[[0,0.5],[1,0.5]];portConstraint=eastwest;" parent="y8SY3zgBV_V-2ngHkjji-74" vertex="1">
          <mxGeometry y="78" width="296" height="26" as="geometry" />
        </mxCell>
        <mxCell id="y8SY3zgBV_V-2ngHkjji-78" value="- address: String" style="text;strokeColor=none;fillColor=none;align=left;verticalAlign=top;spacingLeft=4;spacingRight=4;overflow=hidden;rotatable=0;points=[[0,0.5],[1,0.5]];portConstraint=eastwest;" parent="y8SY3zgBV_V-2ngHkjji-74" vertex="1">
          <mxGeometry y="104" width="296" height="26" as="geometry" />
        </mxCell>
        <mxCell id="y8SY3zgBV_V-2ngHkjji-79" value="- password: String" style="text;strokeColor=none;fillColor=none;align=left;verticalAlign=top;spacingLeft=4;spacingRight=4;overflow=hidden;rotatable=0;points=[[0,0.5],[1,0.5]];portConstraint=eastwest;" parent="y8SY3zgBV_V-2ngHkjji-74" vertex="1">
          <mxGeometry y="130" width="296" height="26" as="geometry" />
        </mxCell>
        <mxCell id="y8SY3zgBV_V-2ngHkjji-80" value="" style="line;strokeWidth=1;fillColor=none;align=left;verticalAlign=middle;spacingTop=-1;spacingLeft=3;spacingRight=3;rotatable=0;labelPosition=right;points=[];portConstraint=eastwest;" parent="y8SY3zgBV_V-2ngHkjji-74" vertex="1">
          <mxGeometry y="156" width="296" height="8" as="geometry" />
        </mxCell>
        <mxCell id="y8SY3zgBV_V-2ngHkjji-81" value="+ Getters &amp; Setters " style="text;strokeColor=none;fillColor=none;align=left;verticalAlign=top;spacingLeft=4;spacingRight=4;overflow=hidden;rotatable=0;points=[[0,0.5],[1,0.5]];portConstraint=eastwest;" parent="y8SY3zgBV_V-2ngHkjji-74" vertex="1">
          <mxGeometry y="164" width="296" height="26" as="geometry" />
        </mxCell>
        <mxCell id="y8SY3zgBV_V-2ngHkjji-82" value="LoginRequest" style="swimlane;fontStyle=1;align=center;verticalAlign=top;childLayout=stackLayout;horizontal=1;startSize=26;horizontalStack=0;resizeParent=1;resizeParentMax=0;resizeLast=0;collapsible=1;marginBottom=0;" parent="WIyWlLk6GJQsqaUBKTNV-1" vertex="1">
          <mxGeometry x="-1060" y="120" width="296" height="112" as="geometry" />
        </mxCell>
        <mxCell id="y8SY3zgBV_V-2ngHkjji-83" value="-usernameOrEmail: String" style="text;strokeColor=none;fillColor=none;align=left;verticalAlign=top;spacingLeft=4;spacingRight=4;overflow=hidden;rotatable=0;points=[[0,0.5],[1,0.5]];portConstraint=eastwest;" parent="y8SY3zgBV_V-2ngHkjji-82" vertex="1">
          <mxGeometry y="26" width="296" height="26" as="geometry" />
        </mxCell>
        <mxCell id="y8SY3zgBV_V-2ngHkjji-87" value="- password: String" style="text;strokeColor=none;fillColor=none;align=left;verticalAlign=top;spacingLeft=4;spacingRight=4;overflow=hidden;rotatable=0;points=[[0,0.5],[1,0.5]];portConstraint=eastwest;" parent="y8SY3zgBV_V-2ngHkjji-82" vertex="1">
          <mxGeometry y="52" width="296" height="26" as="geometry" />
        </mxCell>
        <mxCell id="y8SY3zgBV_V-2ngHkjji-88" value="" style="line;strokeWidth=1;fillColor=none;align=left;verticalAlign=middle;spacingTop=-1;spacingLeft=3;spacingRight=3;rotatable=0;labelPosition=right;points=[];portConstraint=eastwest;" parent="y8SY3zgBV_V-2ngHkjji-82" vertex="1">
          <mxGeometry y="78" width="296" height="8" as="geometry" />
        </mxCell>
        <mxCell id="y8SY3zgBV_V-2ngHkjji-89" value="+ Getters &amp; Setters " style="text;strokeColor=none;fillColor=none;align=left;verticalAlign=top;spacingLeft=4;spacingRight=4;overflow=hidden;rotatable=0;points=[[0,0.5],[1,0.5]];portConstraint=eastwest;" parent="y8SY3zgBV_V-2ngHkjji-82" vertex="1">
          <mxGeometry y="86" width="296" height="26" as="geometry" />
        </mxCell>
        <mxCell id="y8SY3zgBV_V-2ngHkjji-90" value="JwtAuthenticationResponse" style="swimlane;fontStyle=1;align=center;verticalAlign=top;childLayout=stackLayout;horizontal=1;startSize=26;horizontalStack=0;resizeParent=1;resizeParentMax=0;resizeLast=0;collapsible=1;marginBottom=0;" parent="WIyWlLk6GJQsqaUBKTNV-1" vertex="1">
          <mxGeometry x="-1053" y="-407" width="296" height="164" as="geometry" />
        </mxCell>
        <mxCell id="y8SY3zgBV_V-2ngHkjji-91" value="- accessToken: String" style="text;strokeColor=none;fillColor=none;align=left;verticalAlign=top;spacingLeft=4;spacingRight=4;overflow=hidden;rotatable=0;points=[[0,0.5],[1,0.5]];portConstraint=eastwest;" parent="y8SY3zgBV_V-2ngHkjji-90" vertex="1">
          <mxGeometry y="26" width="296" height="26" as="geometry" />
        </mxCell>
        <mxCell id="y8SY3zgBV_V-2ngHkjji-92" value="- tokenType: String" style="text;strokeColor=none;fillColor=none;align=left;verticalAlign=top;spacingLeft=4;spacingRight=4;overflow=hidden;rotatable=0;points=[[0,0.5],[1,0.5]];portConstraint=eastwest;" parent="y8SY3zgBV_V-2ngHkjji-90" vertex="1">
          <mxGeometry y="52" width="296" height="26" as="geometry" />
        </mxCell>
        <mxCell id="y8SY3zgBV_V-2ngHkjji-95" value="- user: User" style="text;strokeColor=none;fillColor=none;align=left;verticalAlign=top;spacingLeft=4;spacingRight=4;overflow=hidden;rotatable=0;points=[[0,0.5],[1,0.5]];portConstraint=eastwest;" parent="y8SY3zgBV_V-2ngHkjji-90" vertex="1">
          <mxGeometry y="78" width="296" height="26" as="geometry" />
        </mxCell>
        <mxCell id="y8SY3zgBV_V-2ngHkjji-93" value="" style="line;strokeWidth=1;fillColor=none;align=left;verticalAlign=middle;spacingTop=-1;spacingLeft=3;spacingRight=3;rotatable=0;labelPosition=right;points=[];portConstraint=eastwest;" parent="y8SY3zgBV_V-2ngHkjji-90" vertex="1">
          <mxGeometry y="104" width="296" height="8" as="geometry" />
        </mxCell>
        <mxCell id="y8SY3zgBV_V-2ngHkjji-96" value="+ JwtAuthenticationResponse(String, User)" style="text;strokeColor=none;fillColor=none;align=left;verticalAlign=top;spacingLeft=4;spacingRight=4;overflow=hidden;rotatable=0;points=[[0,0.5],[1,0.5]];portConstraint=eastwest;" parent="y8SY3zgBV_V-2ngHkjji-90" vertex="1">
          <mxGeometry y="112" width="296" height="26" as="geometry" />
        </mxCell>
        <mxCell id="y8SY3zgBV_V-2ngHkjji-94" value="+ Getters &amp; Setters " style="text;strokeColor=none;fillColor=none;align=left;verticalAlign=top;spacingLeft=4;spacingRight=4;overflow=hidden;rotatable=0;points=[[0,0.5],[1,0.5]];portConstraint=eastwest;" parent="y8SY3zgBV_V-2ngHkjji-90" vertex="1">
          <mxGeometry y="138" width="296" height="26" as="geometry" />
        </mxCell>
        <mxCell id="y8SY3zgBV_V-2ngHkjji-97" value="UserPrincipal&#xa;&#xa;" style="swimlane;fontStyle=1;align=center;verticalAlign=top;childLayout=stackLayout;horizontal=1;startSize=30;horizontalStack=0;resizeParent=1;resizeParentMax=0;resizeLast=0;collapsible=1;marginBottom=0;" parent="WIyWlLk6GJQsqaUBKTNV-1" vertex="1">
          <mxGeometry x="-910" y="290" width="296" height="472" as="geometry" />
        </mxCell>
        <mxCell id="y8SY3zgBV_V-2ngHkjji-98" value="- id: Long" style="text;strokeColor=none;fillColor=none;align=left;verticalAlign=top;spacingLeft=4;spacingRight=4;overflow=hidden;rotatable=0;points=[[0,0.5],[1,0.5]];portConstraint=eastwest;" parent="y8SY3zgBV_V-2ngHkjji-97" vertex="1">
          <mxGeometry y="30" width="296" height="26" as="geometry" />
        </mxCell>
        <mxCell id="y8SY3zgBV_V-2ngHkjji-99" value="- name: String" style="text;strokeColor=none;fillColor=none;align=left;verticalAlign=top;spacingLeft=4;spacingRight=4;overflow=hidden;rotatable=0;points=[[0,0.5],[1,0.5]];portConstraint=eastwest;" parent="y8SY3zgBV_V-2ngHkjji-97" vertex="1">
          <mxGeometry y="56" width="296" height="26" as="geometry" />
        </mxCell>
        <mxCell id="y8SY3zgBV_V-2ngHkjji-100" value="- username: String" style="text;strokeColor=none;fillColor=none;align=left;verticalAlign=top;spacingLeft=4;spacingRight=4;overflow=hidden;rotatable=0;points=[[0,0.5],[1,0.5]];portConstraint=eastwest;" parent="y8SY3zgBV_V-2ngHkjji-97" vertex="1">
          <mxGeometry y="82" width="296" height="26" as="geometry" />
        </mxCell>
        <mxCell id="y8SY3zgBV_V-2ngHkjji-101" value="- password: String" style="text;strokeColor=none;fillColor=none;align=left;verticalAlign=top;spacingLeft=4;spacingRight=4;overflow=hidden;rotatable=0;points=[[0,0.5],[1,0.5]];portConstraint=eastwest;" parent="y8SY3zgBV_V-2ngHkjji-97" vertex="1">
          <mxGeometry y="108" width="296" height="26" as="geometry" />
        </mxCell>
        <mxCell id="y8SY3zgBV_V-2ngHkjji-102" value="- phoneNumber: String" style="text;strokeColor=none;fillColor=none;align=left;verticalAlign=top;spacingLeft=4;spacingRight=4;overflow=hidden;rotatable=0;points=[[0,0.5],[1,0.5]];portConstraint=eastwest;" parent="y8SY3zgBV_V-2ngHkjji-97" vertex="1">
          <mxGeometry y="134" width="296" height="26" as="geometry" />
        </mxCell>
        <mxCell id="y8SY3zgBV_V-2ngHkjji-103" value="- address: String" style="text;strokeColor=none;fillColor=none;align=left;verticalAlign=top;spacingLeft=4;spacingRight=4;overflow=hidden;rotatable=0;points=[[0,0.5],[1,0.5]];portConstraint=eastwest;" parent="y8SY3zgBV_V-2ngHkjji-97" vertex="1">
          <mxGeometry y="160" width="296" height="26" as="geometry" />
        </mxCell>
        <mxCell id="y8SY3zgBV_V-2ngHkjji-107" value="- authorities: Collection&lt;? extends GrantedAuthority&gt;" style="text;strokeColor=none;fillColor=none;align=left;verticalAlign=top;spacingLeft=4;spacingRight=4;overflow=hidden;rotatable=0;points=[[0,0.5],[1,0.5]];portConstraint=eastwest;" parent="y8SY3zgBV_V-2ngHkjji-97" vertex="1">
          <mxGeometry y="186" width="296" height="26" as="geometry" />
        </mxCell>
        <mxCell id="y8SY3zgBV_V-2ngHkjji-108" value="" style="line;strokeWidth=1;fillColor=none;align=left;verticalAlign=middle;spacingTop=-1;spacingLeft=3;spacingRight=3;rotatable=0;labelPosition=right;points=[];portConstraint=eastwest;" parent="y8SY3zgBV_V-2ngHkjji-97" vertex="1">
          <mxGeometry y="212" width="296" height="8" as="geometry" />
        </mxCell>
        <mxCell id="y8SY3zgBV_V-2ngHkjji-109" value="+ UserPrincipal(Long, String, String, String, String, String&#xa;, Collection&lt;? extends GrantedAuthority)&#xa;" style="text;strokeColor=none;fillColor=none;align=left;verticalAlign=top;spacingLeft=4;spacingRight=4;overflow=hidden;rotatable=0;points=[[0,0.5],[1,0.5]];portConstraint=eastwest;" parent="y8SY3zgBV_V-2ngHkjji-97" vertex="1">
          <mxGeometry y="220" width="296" height="44" as="geometry" />
        </mxCell>
        <mxCell id="y8SY3zgBV_V-2ngHkjji-110" value="+ &lt;static&gt; create(User): UserPrincipal&#xa;" style="text;strokeColor=none;fillColor=none;align=left;verticalAlign=top;spacingLeft=4;spacingRight=4;overflow=hidden;rotatable=0;points=[[0,0.5],[1,0.5]];portConstraint=eastwest;" parent="y8SY3zgBV_V-2ngHkjji-97" vertex="1">
          <mxGeometry y="264" width="296" height="26" as="geometry" />
        </mxCell>
        <mxCell id="y8SY3zgBV_V-2ngHkjji-111" value="+ Getters &amp; Setters " style="text;strokeColor=none;fillColor=none;align=left;verticalAlign=top;spacingLeft=4;spacingRight=4;overflow=hidden;rotatable=0;points=[[0,0.5],[1,0.5]];portConstraint=eastwest;" parent="y8SY3zgBV_V-2ngHkjji-97" vertex="1">
          <mxGeometry y="290" width="296" height="26" as="geometry" />
        </mxCell>
        <mxCell id="y8SY3zgBV_V-2ngHkjji-114" value="+ isAccountNonExpired(): boolean" style="text;strokeColor=none;fillColor=none;align=left;verticalAlign=top;spacingLeft=4;spacingRight=4;overflow=hidden;rotatable=0;points=[[0,0.5],[1,0.5]];portConstraint=eastwest;" parent="y8SY3zgBV_V-2ngHkjji-97" vertex="1">
          <mxGeometry y="316" width="296" height="26" as="geometry" />
        </mxCell>
        <mxCell id="y8SY3zgBV_V-2ngHkjji-115" value="+ isAccountNonLocked(): boolean" style="text;strokeColor=none;fillColor=none;align=left;verticalAlign=top;spacingLeft=4;spacingRight=4;overflow=hidden;rotatable=0;points=[[0,0.5],[1,0.5]];portConstraint=eastwest;" parent="y8SY3zgBV_V-2ngHkjji-97" vertex="1">
          <mxGeometry y="342" width="296" height="26" as="geometry" />
        </mxCell>
        <mxCell id="y8SY3zgBV_V-2ngHkjji-117" value="+ isCredentialsNonExpired(): boolean" style="text;strokeColor=none;fillColor=none;align=left;verticalAlign=top;spacingLeft=4;spacingRight=4;overflow=hidden;rotatable=0;points=[[0,0.5],[1,0.5]];portConstraint=eastwest;" parent="y8SY3zgBV_V-2ngHkjji-97" vertex="1">
          <mxGeometry y="368" width="296" height="26" as="geometry" />
        </mxCell>
        <mxCell id="y8SY3zgBV_V-2ngHkjji-116" value="+ isEnable(): boolean" style="text;strokeColor=none;fillColor=none;align=left;verticalAlign=top;spacingLeft=4;spacingRight=4;overflow=hidden;rotatable=0;points=[[0,0.5],[1,0.5]];portConstraint=eastwest;" parent="y8SY3zgBV_V-2ngHkjji-97" vertex="1">
          <mxGeometry y="394" width="296" height="26" as="geometry" />
        </mxCell>
        <mxCell id="y8SY3zgBV_V-2ngHkjji-113" value="+ equals(Object): boolean" style="text;strokeColor=none;fillColor=none;align=left;verticalAlign=top;spacingLeft=4;spacingRight=4;overflow=hidden;rotatable=0;points=[[0,0.5],[1,0.5]];portConstraint=eastwest;" parent="y8SY3zgBV_V-2ngHkjji-97" vertex="1">
          <mxGeometry y="420" width="296" height="26" as="geometry" />
        </mxCell>
        <mxCell id="y8SY3zgBV_V-2ngHkjji-118" value="+ hashCode(): int" style="text;strokeColor=none;fillColor=none;align=left;verticalAlign=top;spacingLeft=4;spacingRight=4;overflow=hidden;rotatable=0;points=[[0,0.5],[1,0.5]];portConstraint=eastwest;" parent="y8SY3zgBV_V-2ngHkjji-97" vertex="1">
          <mxGeometry y="446" width="296" height="26" as="geometry" />
        </mxCell>
        <mxCell id="y8SY3zgBV_V-2ngHkjji-119" value="JwtTokenProvider" style="swimlane;fontStyle=1;align=center;verticalAlign=top;childLayout=stackLayout;horizontal=1;startSize=26;horizontalStack=0;resizeParent=1;resizeParentMax=0;resizeLast=0;collapsible=1;marginBottom=0;" parent="WIyWlLk6GJQsqaUBKTNV-1" vertex="1">
          <mxGeometry x="-598.5" y="66" width="296" height="192" as="geometry">
            <mxRectangle x="-554" y="690" width="140" height="26" as="alternateBounds" />
          </mxGeometry>
        </mxCell>
        <mxCell id="y8SY3zgBV_V-2ngHkjji-137" value="- &lt;static final&gt; logger: Logger" style="text;strokeColor=none;fillColor=none;align=left;verticalAlign=top;spacingLeft=4;spacingRight=4;overflow=hidden;rotatable=0;points=[[0,0.5],[1,0.5]];portConstraint=eastwest;" parent="y8SY3zgBV_V-2ngHkjji-119" vertex="1">
          <mxGeometry y="26" width="296" height="26" as="geometry" />
        </mxCell>
        <mxCell id="y8SY3zgBV_V-2ngHkjji-120" value="- jwtSecret: String" style="text;strokeColor=none;fillColor=none;align=left;verticalAlign=top;spacingLeft=4;spacingRight=4;overflow=hidden;rotatable=0;points=[[0,0.5],[1,0.5]];portConstraint=eastwest;" parent="y8SY3zgBV_V-2ngHkjji-119" vertex="1">
          <mxGeometry y="52" width="296" height="26" as="geometry" />
        </mxCell>
        <mxCell id="y8SY3zgBV_V-2ngHkjji-121" value="- jwtExpirationInMs: int" style="text;strokeColor=none;fillColor=none;align=left;verticalAlign=top;spacingLeft=4;spacingRight=4;overflow=hidden;rotatable=0;points=[[0,0.5],[1,0.5]];portConstraint=eastwest;" parent="y8SY3zgBV_V-2ngHkjji-119" vertex="1">
          <mxGeometry y="78" width="296" height="26" as="geometry" />
        </mxCell>
        <mxCell id="y8SY3zgBV_V-2ngHkjji-127" value="" style="line;strokeWidth=1;fillColor=none;align=left;verticalAlign=middle;spacingTop=-1;spacingLeft=3;spacingRight=3;rotatable=0;labelPosition=right;points=[];portConstraint=eastwest;" parent="y8SY3zgBV_V-2ngHkjji-119" vertex="1">
          <mxGeometry y="104" width="296" height="8" as="geometry" />
        </mxCell>
        <mxCell id="y8SY3zgBV_V-2ngHkjji-128" value="+ generateToken(Authentication): String" style="text;strokeColor=none;fillColor=none;align=left;verticalAlign=top;spacingLeft=4;spacingRight=4;overflow=hidden;rotatable=0;points=[[0,0.5],[1,0.5]];portConstraint=eastwest;" parent="y8SY3zgBV_V-2ngHkjji-119" vertex="1">
          <mxGeometry y="112" width="296" height="28" as="geometry" />
        </mxCell>
        <mxCell id="y8SY3zgBV_V-2ngHkjji-129" value="+ getUserIdFromJWT(String): Long" style="text;strokeColor=none;fillColor=none;align=left;verticalAlign=top;spacingLeft=4;spacingRight=4;overflow=hidden;rotatable=0;points=[[0,0.5],[1,0.5]];portConstraint=eastwest;" parent="y8SY3zgBV_V-2ngHkjji-119" vertex="1">
          <mxGeometry y="140" width="296" height="26" as="geometry" />
        </mxCell>
        <mxCell id="y8SY3zgBV_V-2ngHkjji-130" value="+ validateToken(String): boolean" style="text;strokeColor=none;fillColor=none;align=left;verticalAlign=top;spacingLeft=4;spacingRight=4;overflow=hidden;rotatable=0;points=[[0,0.5],[1,0.5]];portConstraint=eastwest;" parent="y8SY3zgBV_V-2ngHkjji-119" vertex="1">
          <mxGeometry y="166" width="296" height="26" as="geometry" />
        </mxCell>
        <mxCell id="y8SY3zgBV_V-2ngHkjji-138" value="JwtAuthenticationFilter&#xa;" style="swimlane;fontStyle=1;align=center;verticalAlign=top;childLayout=stackLayout;horizontal=1;startSize=30;horizontalStack=0;resizeParent=1;resizeParentMax=0;resizeLast=0;collapsible=1;marginBottom=0;" parent="WIyWlLk6GJQsqaUBKTNV-1" vertex="1">
          <mxGeometry x="-230" y="252" width="370" height="168" as="geometry">
            <mxRectangle x="-580" y="-110" width="220" height="50" as="alternateBounds" />
          </mxGeometry>
        </mxCell>
        <mxCell id="y8SY3zgBV_V-2ngHkjji-139" value="- tokenProvider: JwtTokenProvider" style="text;strokeColor=none;fillColor=none;align=left;verticalAlign=top;spacingLeft=4;spacingRight=4;overflow=hidden;rotatable=0;points=[[0,0.5],[1,0.5]];portConstraint=eastwest;" parent="y8SY3zgBV_V-2ngHkjji-138" vertex="1">
          <mxGeometry y="30" width="370" height="26" as="geometry" />
        </mxCell>
        <mxCell id="y8SY3zgBV_V-2ngHkjji-140" value="- customUserDetailsService: customUserDetailsService" style="text;strokeColor=none;fillColor=none;align=left;verticalAlign=top;spacingLeft=4;spacingRight=4;overflow=hidden;rotatable=0;points=[[0,0.5],[1,0.5]];portConstraint=eastwest;" parent="y8SY3zgBV_V-2ngHkjji-138" vertex="1">
          <mxGeometry y="56" width="370" height="26" as="geometry" />
        </mxCell>
        <mxCell id="y8SY3zgBV_V-2ngHkjji-141" value="- &lt;static final&gt; logger: Logger" style="text;strokeColor=none;fillColor=none;align=left;verticalAlign=top;spacingLeft=4;spacingRight=4;overflow=hidden;rotatable=0;points=[[0,0.5],[1,0.5]];portConstraint=eastwest;" parent="y8SY3zgBV_V-2ngHkjji-138" vertex="1">
          <mxGeometry y="82" width="370" height="26" as="geometry" />
        </mxCell>
        <mxCell id="y8SY3zgBV_V-2ngHkjji-146" value="" style="line;strokeWidth=1;fillColor=none;align=left;verticalAlign=middle;spacingTop=-1;spacingLeft=3;spacingRight=3;rotatable=0;labelPosition=right;points=[];portConstraint=eastwest;" parent="y8SY3zgBV_V-2ngHkjji-138" vertex="1">
          <mxGeometry y="108" width="370" height="8" as="geometry" />
        </mxCell>
        <mxCell id="y8SY3zgBV_V-2ngHkjji-148" value="# doFilterInternal(HttpServletRequest, HttpServletResponse): void" style="text;strokeColor=none;fillColor=none;align=left;verticalAlign=top;spacingLeft=4;spacingRight=4;overflow=hidden;rotatable=0;points=[[0,0.5],[1,0.5]];portConstraint=eastwest;" parent="y8SY3zgBV_V-2ngHkjji-138" vertex="1">
          <mxGeometry y="116" width="370" height="26" as="geometry" />
        </mxCell>
        <mxCell id="y8SY3zgBV_V-2ngHkjji-150" value="- getJwtFromRequest(HttpServletRequest): String" style="text;strokeColor=none;fillColor=none;align=left;verticalAlign=top;spacingLeft=4;spacingRight=4;overflow=hidden;rotatable=0;points=[[0,0.5],[1,0.5]];portConstraint=eastwest;" parent="y8SY3zgBV_V-2ngHkjji-138" vertex="1">
          <mxGeometry y="142" width="370" height="26" as="geometry" />
        </mxCell>
        <mxCell id="y8SY3zgBV_V-2ngHkjji-160" value="JwtAuthenticationEntryPoint" style="swimlane;fontStyle=1;align=center;verticalAlign=top;childLayout=stackLayout;horizontal=1;startSize=30;horizontalStack=0;resizeParent=1;resizeParentMax=0;resizeLast=0;collapsible=1;marginBottom=0;" parent="WIyWlLk6GJQsqaUBKTNV-1" vertex="1">
          <mxGeometry x="-197" y="450" width="310" height="108" as="geometry" />
        </mxCell>
        <mxCell id="y8SY3zgBV_V-2ngHkjji-162" value="- &lt;static final&gt; logger: Logger" style="text;strokeColor=none;fillColor=none;align=left;verticalAlign=top;spacingLeft=4;spacingRight=4;overflow=hidden;rotatable=0;points=[[0,0.5],[1,0.5]];portConstraint=eastwest;" parent="y8SY3zgBV_V-2ngHkjji-160" vertex="1">
          <mxGeometry y="30" width="310" height="26" as="geometry" />
        </mxCell>
        <mxCell id="y8SY3zgBV_V-2ngHkjji-168" value="" style="line;strokeWidth=1;fillColor=none;align=left;verticalAlign=middle;spacingTop=-1;spacingLeft=3;spacingRight=3;rotatable=0;labelPosition=right;points=[];portConstraint=eastwest;" parent="y8SY3zgBV_V-2ngHkjji-160" vertex="1">
          <mxGeometry y="56" width="310" height="8" as="geometry" />
        </mxCell>
        <mxCell id="y8SY3zgBV_V-2ngHkjji-169" value="+ commence(HttpServletRequest, HttpServletResponse,&#xa;AuthenticationEntryPoint): void" style="text;strokeColor=none;fillColor=none;align=left;verticalAlign=top;spacingLeft=4;spacingRight=4;overflow=hidden;rotatable=0;points=[[0,0.5],[1,0.5]];portConstraint=eastwest;" parent="y8SY3zgBV_V-2ngHkjji-160" vertex="1">
          <mxGeometry y="64" width="310" height="44" as="geometry" />
        </mxCell>
        <mxCell id="y8SY3zgBV_V-2ngHkjji-179" value="CustomUserDetailsService" style="swimlane;fontStyle=1;align=center;verticalAlign=top;childLayout=stackLayout;horizontal=1;startSize=30;horizontalStack=0;resizeParent=1;resizeParentMax=0;resizeLast=0;collapsible=1;marginBottom=0;" parent="WIyWlLk6GJQsqaUBKTNV-1" vertex="1">
          <mxGeometry x="-183" y="100" width="296" height="116" as="geometry" />
        </mxCell>
        <mxCell id="y8SY3zgBV_V-2ngHkjji-180" value="# userRepository: UserRepository" style="text;strokeColor=none;fillColor=none;align=left;verticalAlign=top;spacingLeft=4;spacingRight=4;overflow=hidden;rotatable=0;points=[[0,0.5],[1,0.5]];portConstraint=eastwest;" parent="y8SY3zgBV_V-2ngHkjji-179" vertex="1">
          <mxGeometry y="30" width="296" height="26" as="geometry" />
        </mxCell>
        <mxCell id="y8SY3zgBV_V-2ngHkjji-187" value="" style="line;strokeWidth=1;fillColor=none;align=left;verticalAlign=middle;spacingTop=-1;spacingLeft=3;spacingRight=3;rotatable=0;labelPosition=right;points=[];portConstraint=eastwest;" parent="y8SY3zgBV_V-2ngHkjji-179" vertex="1">
          <mxGeometry y="56" width="296" height="8" as="geometry" />
        </mxCell>
        <mxCell id="y8SY3zgBV_V-2ngHkjji-188" value="+ loadUserByUsername(String): UserDetails" style="text;strokeColor=none;fillColor=none;align=left;verticalAlign=top;spacingLeft=4;spacingRight=4;overflow=hidden;rotatable=0;points=[[0,0.5],[1,0.5]];portConstraint=eastwest;" parent="y8SY3zgBV_V-2ngHkjji-179" vertex="1">
          <mxGeometry y="64" width="296" height="26" as="geometry" />
        </mxCell>
        <mxCell id="y8SY3zgBV_V-2ngHkjji-189" value="+ loadUserById(Long): Userdetails" style="text;strokeColor=none;fillColor=none;align=left;verticalAlign=top;spacingLeft=4;spacingRight=4;overflow=hidden;rotatable=0;points=[[0,0.5],[1,0.5]];portConstraint=eastwest;" parent="y8SY3zgBV_V-2ngHkjji-179" vertex="1">
          <mxGeometry y="90" width="296" height="26" as="geometry" />
        </mxCell>
        <mxCell id="y8SY3zgBV_V-2ngHkjji-197" value="&lt;div&gt;&amp;lt;&amp;lt;interface&amp;gt;&amp;gt;&lt;br&gt;&lt;/div&gt;&lt;div&gt;CurrentUser&lt;/div&gt;" style="swimlane;fontStyle=1;align=center;verticalAlign=middle;childLayout=stackLayout;horizontal=1;startSize=29;horizontalStack=0;resizeParent=1;resizeParentMax=0;resizeLast=0;collapsible=0;marginBottom=0;html=1;" parent="WIyWlLk6GJQsqaUBKTNV-1" vertex="1">
          <mxGeometry x="-500" y="300" width="140" height="54" as="geometry" />
        </mxCell>
        <mxCell id="y8SY3zgBV_V-2ngHkjji-200" value="&lt;&lt;interface&gt;&gt;&#xa;UserRepository" style="swimlane;fontStyle=1;align=center;verticalAlign=top;childLayout=stackLayout;horizontal=1;startSize=40;horizontalStack=0;resizeParent=1;resizeParentMax=0;resizeLast=0;collapsible=1;marginBottom=0;" parent="WIyWlLk6GJQsqaUBKTNV-1" vertex="1">
          <mxGeometry x="-230" y="-224" width="390" height="270" as="geometry" />
        </mxCell>
        <mxCell id="y8SY3zgBV_V-2ngHkjji-208" value="" style="line;strokeWidth=1;fillColor=none;align=left;verticalAlign=middle;spacingTop=-1;spacingLeft=3;spacingRight=3;rotatable=0;labelPosition=right;points=[];portConstraint=eastwest;" parent="y8SY3zgBV_V-2ngHkjji-200" vertex="1">
          <mxGeometry y="40" width="390" height="8" as="geometry" />
        </mxCell>
        <mxCell id="y8SY3zgBV_V-2ngHkjji-210" value="+ findAll(Pageable): Page&lt;User&gt;" style="text;strokeColor=none;fillColor=none;align=left;verticalAlign=top;spacingLeft=4;spacingRight=4;overflow=hidden;rotatable=0;points=[[0,0.5],[1,0.5]];portConstraint=eastwest;" parent="y8SY3zgBV_V-2ngHkjji-200" vertex="1">
          <mxGeometry y="48" width="390" height="26" as="geometry" />
        </mxCell>
        <mxCell id="y8SY3zgBV_V-2ngHkjji-211" value="+ findById(Long, Pageable): Page&lt;User&gt;" style="text;strokeColor=none;fillColor=none;align=left;verticalAlign=top;spacingLeft=4;spacingRight=4;overflow=hidden;rotatable=0;points=[[0,0.5],[1,0.5]];portConstraint=eastwest;" parent="y8SY3zgBV_V-2ngHkjji-200" vertex="1">
          <mxGeometry y="74" width="390" height="26" as="geometry" />
        </mxCell>
        <mxCell id="y8SY3zgBV_V-2ngHkjji-212" value="+ findByPhoneNumber(String, Pageable): Page&lt;User&gt;" style="text;strokeColor=none;fillColor=none;align=left;verticalAlign=top;spacingLeft=4;spacingRight=4;overflow=hidden;rotatable=0;points=[[0,0.5],[1,0.5]];portConstraint=eastwest;" parent="y8SY3zgBV_V-2ngHkjji-200" vertex="1">
          <mxGeometry y="100" width="390" height="26" as="geometry" />
        </mxCell>
        <mxCell id="y8SY3zgBV_V-2ngHkjji-213" value="+ findByUsernameOrPhoneNumber(String, String): Optional&lt;User&gt;" style="text;strokeColor=none;fillColor=none;align=left;verticalAlign=top;spacingLeft=4;spacingRight=4;overflow=hidden;rotatable=0;points=[[0,0.5],[1,0.5]];portConstraint=eastwest;" parent="y8SY3zgBV_V-2ngHkjji-200" vertex="1">
          <mxGeometry y="126" width="390" height="26" as="geometry" />
        </mxCell>
        <mxCell id="y8SY3zgBV_V-2ngHkjji-214" value="+ findByUsername(String, Pageable): Page&lt;User&gt;" style="text;strokeColor=none;fillColor=none;align=left;verticalAlign=top;spacingLeft=4;spacingRight=4;overflow=hidden;rotatable=0;points=[[0,0.5],[1,0.5]];portConstraint=eastwest;" parent="y8SY3zgBV_V-2ngHkjji-200" vertex="1">
          <mxGeometry y="152" width="390" height="26" as="geometry" />
        </mxCell>
        <mxCell id="y8SY3zgBV_V-2ngHkjji-215" value="+ existsByUsername(String): boolean" style="text;strokeColor=none;fillColor=none;align=left;verticalAlign=top;spacingLeft=4;spacingRight=4;overflow=hidden;rotatable=0;points=[[0,0.5],[1,0.5]];portConstraint=eastwest;" parent="y8SY3zgBV_V-2ngHkjji-200" vertex="1">
          <mxGeometry y="178" width="390" height="26" as="geometry" />
        </mxCell>
        <mxCell id="y8SY3zgBV_V-2ngHkjji-216" value="+ existsByPhoneNumber(String): boolean" style="text;strokeColor=none;fillColor=none;align=left;verticalAlign=top;spacingLeft=4;spacingRight=4;overflow=hidden;rotatable=0;points=[[0,0.5],[1,0.5]];portConstraint=eastwest;" parent="y8SY3zgBV_V-2ngHkjji-200" vertex="1">
          <mxGeometry y="204" width="390" height="26" as="geometry" />
        </mxCell>
        <mxCell id="y8SY3zgBV_V-2ngHkjji-217" value="+ findByNameContainingOrAddressContaining(String, String, Pageable):&#xa;Page&lt;User&gt;&#xa;" style="text;strokeColor=none;fillColor=none;align=left;verticalAlign=top;spacingLeft=4;spacingRight=4;overflow=hidden;rotatable=0;points=[[0,0.5],[1,0.5]];portConstraint=eastwest;" parent="y8SY3zgBV_V-2ngHkjji-200" vertex="1">
          <mxGeometry y="230" width="390" height="40" as="geometry" />
        </mxCell>
        <mxCell id="y8SY3zgBV_V-2ngHkjji-219" value="&lt;&lt;interface&gt;&gt;&#xa;RoleRepository" style="swimlane;fontStyle=1;align=center;verticalAlign=top;childLayout=stackLayout;horizontal=1;startSize=40;horizontalStack=0;resizeParent=1;resizeParentMax=0;resizeLast=0;collapsible=1;marginBottom=0;" parent="WIyWlLk6GJQsqaUBKTNV-1" vertex="1">
          <mxGeometry x="-1100" y="-210" width="390" height="74" as="geometry" />
        </mxCell>
        <mxCell id="y8SY3zgBV_V-2ngHkjji-220" value="" style="line;strokeWidth=1;fillColor=none;align=left;verticalAlign=middle;spacingTop=-1;spacingLeft=3;spacingRight=3;rotatable=0;labelPosition=right;points=[];portConstraint=eastwest;" parent="y8SY3zgBV_V-2ngHkjji-219" vertex="1">
          <mxGeometry y="40" width="390" height="8" as="geometry" />
        </mxCell>
        <mxCell id="y8SY3zgBV_V-2ngHkjji-222" value="+ findByName(RoleName): Optional&lt;Role&gt;" style="text;strokeColor=none;fillColor=none;align=left;verticalAlign=top;spacingLeft=4;spacingRight=4;overflow=hidden;rotatable=0;points=[[0,0.5],[1,0.5]];portConstraint=eastwest;" parent="y8SY3zgBV_V-2ngHkjji-219" vertex="1">
          <mxGeometry y="48" width="390" height="26" as="geometry" />
        </mxCell>
        <mxCell id="y8SY3zgBV_V-2ngHkjji-229" value="AccountService" style="swimlane;fontStyle=1;align=center;verticalAlign=top;childLayout=stackLayout;horizontal=1;startSize=30;horizontalStack=0;resizeParent=1;resizeParentMax=0;resizeLast=0;collapsible=1;marginBottom=0;" parent="WIyWlLk6GJQsqaUBKTNV-1" vertex="1">
          <mxGeometry x="198" y="-580" width="359" height="264" as="geometry" />
        </mxCell>
        <mxCell id="y8SY3zgBV_V-2ngHkjji-230" value="- userRepository: UserRepository" style="text;strokeColor=none;fillColor=none;align=left;verticalAlign=top;spacingLeft=4;spacingRight=4;overflow=hidden;rotatable=0;points=[[0,0.5],[1,0.5]];portConstraint=eastwest;" parent="y8SY3zgBV_V-2ngHkjji-229" vertex="1">
          <mxGeometry y="30" width="359" height="26" as="geometry" />
        </mxCell>
        <mxCell id="y8SY3zgBV_V-2ngHkjji-231" value="- roleRepository: RoleRepository" style="text;strokeColor=none;fillColor=none;align=left;verticalAlign=top;spacingLeft=4;spacingRight=4;overflow=hidden;rotatable=0;points=[[0,0.5],[1,0.5]];portConstraint=eastwest;" parent="y8SY3zgBV_V-2ngHkjji-229" vertex="1">
          <mxGeometry y="56" width="359" height="26" as="geometry" />
        </mxCell>
        <mxCell id="y8SY3zgBV_V-2ngHkjji-237" value="" style="line;strokeWidth=1;fillColor=none;align=left;verticalAlign=middle;spacingTop=-1;spacingLeft=3;spacingRight=3;rotatable=0;labelPosition=right;points=[];portConstraint=eastwest;" parent="y8SY3zgBV_V-2ngHkjji-229" vertex="1">
          <mxGeometry y="82" width="359" height="8" as="geometry" />
        </mxCell>
        <mxCell id="y8SY3zgBV_V-2ngHkjji-238" value="+ getAllAccount (Long, String, String, String, &#xa;String, int, int, String[]): Page&lt;User&gt;&#xa;" style="text;strokeColor=none;fillColor=none;align=left;verticalAlign=top;spacingLeft=4;spacingRight=4;overflow=hidden;rotatable=0;points=[[0,0.5],[1,0.5]];portConstraint=eastwest;" parent="y8SY3zgBV_V-2ngHkjji-229" vertex="1">
          <mxGeometry y="90" width="359" height="44" as="geometry" />
        </mxCell>
        <mxCell id="y8SY3zgBV_V-2ngHkjji-239" value="+ getById(Long): User " style="text;strokeColor=none;fillColor=none;align=left;verticalAlign=top;spacingLeft=4;spacingRight=4;overflow=hidden;rotatable=0;points=[[0,0.5],[1,0.5]];portConstraint=eastwest;" parent="y8SY3zgBV_V-2ngHkjji-229" vertex="1">
          <mxGeometry y="134" width="359" height="26" as="geometry" />
        </mxCell>
        <mxCell id="y8SY3zgBV_V-2ngHkjji-240" value="+ getAccountByCondition(String, String, Pageable): Page&lt;User&gt;" style="text;strokeColor=none;fillColor=none;align=left;verticalAlign=top;spacingLeft=4;spacingRight=4;overflow=hidden;rotatable=0;points=[[0,0.5],[1,0.5]];portConstraint=eastwest;" parent="y8SY3zgBV_V-2ngHkjji-229" vertex="1">
          <mxGeometry y="160" width="359" height="26" as="geometry" />
        </mxCell>
        <mxCell id="y8SY3zgBV_V-2ngHkjji-241" value="+ updateUser(Long, UserPayload): User" style="text;strokeColor=none;fillColor=none;align=left;verticalAlign=top;spacingLeft=4;spacingRight=4;overflow=hidden;rotatable=0;points=[[0,0.5],[1,0.5]];portConstraint=eastwest;" parent="y8SY3zgBV_V-2ngHkjji-229" vertex="1">
          <mxGeometry y="186" width="359" height="26" as="geometry" />
        </mxCell>
        <mxCell id="y8SY3zgBV_V-2ngHkjji-242" value="+ findById (Long): Optional&lt;User&gt;" style="text;strokeColor=none;fillColor=none;align=left;verticalAlign=top;spacingLeft=4;spacingRight=4;overflow=hidden;rotatable=0;points=[[0,0.5],[1,0.5]];portConstraint=eastwest;" parent="y8SY3zgBV_V-2ngHkjji-229" vertex="1">
          <mxGeometry y="212" width="359" height="26" as="geometry" />
        </mxCell>
        <mxCell id="y8SY3zgBV_V-2ngHkjji-243" value="+ deleteUser(Long): void" style="text;strokeColor=none;fillColor=none;align=left;verticalAlign=top;spacingLeft=4;spacingRight=4;overflow=hidden;rotatable=0;points=[[0,0.5],[1,0.5]];portConstraint=eastwest;" parent="y8SY3zgBV_V-2ngHkjji-229" vertex="1">
          <mxGeometry y="238" width="359" height="26" as="geometry" />
        </mxCell>
        <mxCell id="MSI8PUPeQ2H2KWC3Pi9Z-0" value="AuthenService" style="swimlane;fontStyle=1;align=center;verticalAlign=top;childLayout=stackLayout;horizontal=1;startSize=30;horizontalStack=0;resizeParent=1;resizeParentMax=0;resizeLast=0;collapsible=1;marginBottom=0;" vertex="1" parent="WIyWlLk6GJQsqaUBKTNV-1">
          <mxGeometry x="-630" y="-224" width="359" height="216" as="geometry" />
        </mxCell>
        <mxCell id="MSI8PUPeQ2H2KWC3Pi9Z-1" value="# authenticationMananger: AuthenticationManager" style="text;strokeColor=none;fillColor=none;align=left;verticalAlign=top;spacingLeft=4;spacingRight=4;overflow=hidden;rotatable=0;points=[[0,0.5],[1,0.5]];portConstraint=eastwest;" vertex="1" parent="MSI8PUPeQ2H2KWC3Pi9Z-0">
          <mxGeometry y="30" width="359" height="26" as="geometry" />
        </mxCell>
        <mxCell id="MSI8PUPeQ2H2KWC3Pi9Z-10" value="# roleRepository: RoleRepository" style="text;strokeColor=none;fillColor=none;align=left;verticalAlign=top;spacingLeft=4;spacingRight=4;overflow=hidden;rotatable=0;points=[[0,0.5],[1,0.5]];portConstraint=eastwest;" vertex="1" parent="MSI8PUPeQ2H2KWC3Pi9Z-0">
          <mxGeometry y="56" width="359" height="26" as="geometry" />
        </mxCell>
        <mxCell id="MSI8PUPeQ2H2KWC3Pi9Z-11" value="# passwordEncoder: PasswordEncoder" style="text;strokeColor=none;fillColor=none;align=left;verticalAlign=top;spacingLeft=4;spacingRight=4;overflow=hidden;rotatable=0;points=[[0,0.5],[1,0.5]];portConstraint=eastwest;" vertex="1" parent="MSI8PUPeQ2H2KWC3Pi9Z-0">
          <mxGeometry y="82" width="359" height="26" as="geometry" />
        </mxCell>
        <mxCell id="MSI8PUPeQ2H2KWC3Pi9Z-12" value="# tokenProvider: JwtTokenProvider" style="text;strokeColor=none;fillColor=none;align=left;verticalAlign=top;spacingLeft=4;spacingRight=4;overflow=hidden;rotatable=0;points=[[0,0.5],[1,0.5]];portConstraint=eastwest;" vertex="1" parent="MSI8PUPeQ2H2KWC3Pi9Z-0">
          <mxGeometry y="108" width="359" height="26" as="geometry" />
        </mxCell>
        <mxCell id="MSI8PUPeQ2H2KWC3Pi9Z-2" value="# cartService: CartService" style="text;strokeColor=none;fillColor=none;align=left;verticalAlign=top;spacingLeft=4;spacingRight=4;overflow=hidden;rotatable=0;points=[[0,0.5],[1,0.5]];portConstraint=eastwest;" vertex="1" parent="MSI8PUPeQ2H2KWC3Pi9Z-0">
          <mxGeometry y="134" width="359" height="26" as="geometry" />
        </mxCell>
        <mxCell id="MSI8PUPeQ2H2KWC3Pi9Z-3" value="" style="line;strokeWidth=1;fillColor=none;align=left;verticalAlign=middle;spacingTop=-1;spacingLeft=3;spacingRight=3;rotatable=0;labelPosition=right;points=[];portConstraint=eastwest;" vertex="1" parent="MSI8PUPeQ2H2KWC3Pi9Z-0">
          <mxGeometry y="160" width="359" height="8" as="geometry" />
        </mxCell>
        <mxCell id="MSI8PUPeQ2H2KWC3Pi9Z-4" value="+ authenticateUser(LoginRequest): ResponseEntity&lt;?&gt;" style="text;strokeColor=none;fillColor=none;align=left;verticalAlign=top;spacingLeft=4;spacingRight=4;overflow=hidden;rotatable=0;points=[[0,0.5],[1,0.5]];portConstraint=eastwest;" vertex="1" parent="MSI8PUPeQ2H2KWC3Pi9Z-0">
          <mxGeometry y="168" width="359" height="22" as="geometry" />
        </mxCell>
        <mxCell id="MSI8PUPeQ2H2KWC3Pi9Z-5" value="+ registerUser(SignUpRequest): ResponseEntity&lt;?&gt;" style="text;strokeColor=none;fillColor=none;align=left;verticalAlign=top;spacingLeft=4;spacingRight=4;overflow=hidden;rotatable=0;points=[[0,0.5],[1,0.5]];portConstraint=eastwest;" vertex="1" parent="MSI8PUPeQ2H2KWC3Pi9Z-0">
          <mxGeometry y="190" width="359" height="26" as="geometry" />
        </mxCell>
        <mxCell id="MSI8PUPeQ2H2KWC3Pi9Z-13" value="AccountController" style="swimlane;fontStyle=1;align=center;verticalAlign=top;childLayout=stackLayout;horizontal=1;startSize=26;horizontalStack=0;resizeParent=1;resizeParentMax=0;resizeLast=0;collapsible=1;marginBottom=0;" vertex="1" parent="WIyWlLk6GJQsqaUBKTNV-1">
          <mxGeometry x="650" y="-680" width="390" height="200" as="geometry" />
        </mxCell>
        <mxCell id="MSI8PUPeQ2H2KWC3Pi9Z-14" value="- accountService: AccountService&#xa;&#xa;- userRepository: UserRepository&#xa;" style="text;strokeColor=none;fillColor=none;align=left;verticalAlign=top;spacingLeft=4;spacingRight=4;overflow=hidden;rotatable=0;points=[[0,0.5],[1,0.5]];portConstraint=eastwest;" vertex="1" parent="MSI8PUPeQ2H2KWC3Pi9Z-13">
          <mxGeometry y="26" width="390" height="64" as="geometry" />
        </mxCell>
        <mxCell id="MSI8PUPeQ2H2KWC3Pi9Z-15" value="" style="line;strokeWidth=1;fillColor=none;align=left;verticalAlign=middle;spacingTop=-1;spacingLeft=3;spacingRight=3;rotatable=0;labelPosition=right;points=[];portConstraint=eastwest;" vertex="1" parent="MSI8PUPeQ2H2KWC3Pi9Z-13">
          <mxGeometry y="90" width="390" height="8" as="geometry" />
        </mxCell>
        <mxCell id="MSI8PUPeQ2H2KWC3Pi9Z-16" value="+ getAllAccount(): ResponseEntity&#xa;&#xa;+ updateAccount(id: Long, request: UserPayLoad): ResponseEntity&#xa;&#xa;+ deleteAccount(id: Long): ResponseEntity&#xa;" style="text;strokeColor=none;fillColor=none;align=left;verticalAlign=top;spacingLeft=4;spacingRight=4;overflow=hidden;rotatable=0;points=[[0,0.5],[1,0.5]];portConstraint=eastwest;" vertex="1" parent="MSI8PUPeQ2H2KWC3Pi9Z-13">
          <mxGeometry y="98" width="390" height="102" as="geometry" />
        </mxCell>
        <mxCell id="MSI8PUPeQ2H2KWC3Pi9Z-17" value="AuthController" style="swimlane;fontStyle=1;align=center;verticalAlign=top;childLayout=stackLayout;horizontal=1;startSize=26;horizontalStack=0;resizeParent=1;resizeParentMax=0;resizeLast=0;collapsible=1;marginBottom=0;" vertex="1" parent="WIyWlLk6GJQsqaUBKTNV-1">
          <mxGeometry x="-655" y="-480" width="390" height="130" as="geometry" />
        </mxCell>
        <mxCell id="MSI8PUPeQ2H2KWC3Pi9Z-18" value="# authenService: AuthenService" style="text;strokeColor=none;fillColor=none;align=left;verticalAlign=top;spacingLeft=4;spacingRight=4;overflow=hidden;rotatable=0;points=[[0,0.5],[1,0.5]];portConstraint=eastwest;" vertex="1" parent="MSI8PUPeQ2H2KWC3Pi9Z-17">
          <mxGeometry y="26" width="390" height="34" as="geometry" />
        </mxCell>
        <mxCell id="MSI8PUPeQ2H2KWC3Pi9Z-19" value="" style="line;strokeWidth=1;fillColor=none;align=left;verticalAlign=middle;spacingTop=-1;spacingLeft=3;spacingRight=3;rotatable=0;labelPosition=right;points=[];portConstraint=eastwest;" vertex="1" parent="MSI8PUPeQ2H2KWC3Pi9Z-17">
          <mxGeometry y="60" width="390" height="8" as="geometry" />
        </mxCell>
        <mxCell id="MSI8PUPeQ2H2KWC3Pi9Z-20" value="+ authenticateUser(LoginRequest): ResponseEntity&lt;?&gt;&#xa;&#xa;+ registerUser(SignUpRequest): ResponseEntity&lt;?&gt;" style="text;strokeColor=none;fillColor=none;align=left;verticalAlign=top;spacingLeft=4;spacingRight=4;overflow=hidden;rotatable=0;points=[[0,0.5],[1,0.5]];portConstraint=eastwest;" vertex="1" parent="MSI8PUPeQ2H2KWC3Pi9Z-17">
          <mxGeometry y="68" width="390" height="62" as="geometry" />
        </mxCell>
        <mxCell id="MSI8PUPeQ2H2KWC3Pi9Z-26" value="" style="endArrow=none;html=1;rounded=0;exitX=1;exitY=0.5;exitDx=0;exitDy=0;entryX=0;entryY=0;entryDx=0;entryDy=0;" edge="1" parent="WIyWlLk6GJQsqaUBKTNV-1" source="y8SY3zgBV_V-2ngHkjji-34" target="y8SY3zgBV_V-2ngHkjji-11">
          <mxGeometry relative="1" as="geometry">
            <mxPoint x="436" y="-34" as="sourcePoint" />
            <mxPoint x="596" y="-34" as="targetPoint" />
          </mxGeometry>
        </mxCell>
        <mxCell id="MSI8PUPeQ2H2KWC3Pi9Z-27" value="1*" style="text;html=1;align=center;verticalAlign=middle;resizable=0;points=[];autosize=1;" vertex="1" parent="WIyWlLk6GJQsqaUBKTNV-1">
          <mxGeometry x="477" y="-98" width="30" height="20" as="geometry" />
        </mxCell>
        <mxCell id="MSI8PUPeQ2H2KWC3Pi9Z-33" value="" style="group" vertex="1" connectable="0" parent="WIyWlLk6GJQsqaUBKTNV-1">
          <mxGeometry x="486" y="-204" width="231" height="263" as="geometry" />
        </mxCell>
        <mxCell id="MSI8PUPeQ2H2KWC3Pi9Z-24" value="1" style="text;html=1;align=center;verticalAlign=middle;resizable=0;points=[];autosize=1;" vertex="1" parent="MSI8PUPeQ2H2KWC3Pi9Z-33">
          <mxGeometry x="54" y="184" width="20" height="20" as="geometry" />
        </mxCell>
        <mxCell id="MSI8PUPeQ2H2KWC3Pi9Z-25" value="1" style="text;html=1;align=center;verticalAlign=middle;resizable=0;points=[];autosize=1;" vertex="1" parent="MSI8PUPeQ2H2KWC3Pi9Z-33">
          <mxGeometry y="184" width="20" height="20" as="geometry" />
        </mxCell>
        <mxCell id="y8SY3zgBV_V-2ngHkjji-19" value="&lt;div&gt;&amp;lt;&amp;lt;enum&amp;gt;&amp;gt;&lt;br&gt;&lt;/div&gt;&lt;div&gt;UserStatus&lt;/div&gt;" style="swimlane;fontStyle=1;align=center;verticalAlign=middle;childLayout=stackLayout;horizontal=1;startSize=29;horizontalStack=0;resizeParent=1;resizeParentMax=0;resizeLast=0;collapsible=0;marginBottom=0;html=1;" parent="MSI8PUPeQ2H2KWC3Pi9Z-33" vertex="1">
          <mxGeometry x="71" y="188" width="140" height="79" as="geometry" />
        </mxCell>
        <mxCell id="y8SY3zgBV_V-2ngHkjji-21" value="ACTIVATED" style="text;html=1;strokeColor=none;fillColor=none;align=left;verticalAlign=middle;spacingLeft=4;spacingRight=4;overflow=hidden;rotatable=0;points=[[0,0.5],[1,0.5]];portConstraint=eastwest;" parent="y8SY3zgBV_V-2ngHkjji-19" vertex="1">
          <mxGeometry y="29" width="140" height="25" as="geometry" />
        </mxCell>
        <mxCell id="y8SY3zgBV_V-2ngHkjji-51" value="DEACTIVATED" style="text;html=1;strokeColor=none;fillColor=none;align=left;verticalAlign=middle;spacingLeft=4;spacingRight=4;overflow=hidden;rotatable=0;points=[[0,0.5],[1,0.5]];portConstraint=eastwest;" parent="y8SY3zgBV_V-2ngHkjji-19" vertex="1">
          <mxGeometry y="54" width="140" height="25" as="geometry" />
        </mxCell>
        <mxCell id="y8SY3zgBV_V-2ngHkjji-11" value="Role" style="swimlane;fontStyle=1;align=center;verticalAlign=top;childLayout=stackLayout;horizontal=1;startSize=26;horizontalStack=0;resizeParent=1;resizeParentMax=0;resizeLast=0;collapsible=1;marginBottom=0;" parent="MSI8PUPeQ2H2KWC3Pi9Z-33" vertex="1">
          <mxGeometry x="71" width="160" height="164" as="geometry" />
        </mxCell>
        <mxCell id="y8SY3zgBV_V-2ngHkjji-52" value="- id: Long" style="text;strokeColor=none;fillColor=none;align=left;verticalAlign=top;spacingLeft=4;spacingRight=4;overflow=hidden;rotatable=0;points=[[0,0.5],[1,0.5]];portConstraint=eastwest;" parent="y8SY3zgBV_V-2ngHkjji-11" vertex="1">
          <mxGeometry y="26" width="160" height="26" as="geometry" />
        </mxCell>
        <mxCell id="y8SY3zgBV_V-2ngHkjji-12" value="- name: RoleName" style="text;strokeColor=none;fillColor=none;align=left;verticalAlign=top;spacingLeft=4;spacingRight=4;overflow=hidden;rotatable=0;points=[[0,0.5],[1,0.5]];portConstraint=eastwest;" parent="y8SY3zgBV_V-2ngHkjji-11" vertex="1">
          <mxGeometry y="52" width="160" height="26" as="geometry" />
        </mxCell>
        <mxCell id="y8SY3zgBV_V-2ngHkjji-13" value="" style="line;strokeWidth=1;fillColor=none;align=left;verticalAlign=middle;spacingTop=-1;spacingLeft=3;spacingRight=3;rotatable=0;labelPosition=right;points=[];portConstraint=eastwest;" parent="y8SY3zgBV_V-2ngHkjji-11" vertex="1">
          <mxGeometry y="78" width="160" height="8" as="geometry" />
        </mxCell>
        <mxCell id="y8SY3zgBV_V-2ngHkjji-14" value="+ Role()" style="text;strokeColor=none;fillColor=none;align=left;verticalAlign=top;spacingLeft=4;spacingRight=4;overflow=hidden;rotatable=0;points=[[0,0.5],[1,0.5]];portConstraint=eastwest;" parent="y8SY3zgBV_V-2ngHkjji-11" vertex="1">
          <mxGeometry y="86" width="160" height="26" as="geometry" />
        </mxCell>
        <mxCell id="y8SY3zgBV_V-2ngHkjji-54" value="+ Role(RoleName)" style="text;strokeColor=none;fillColor=none;align=left;verticalAlign=top;spacingLeft=4;spacingRight=4;overflow=hidden;rotatable=0;points=[[0,0.5],[1,0.5]];portConstraint=eastwest;" parent="y8SY3zgBV_V-2ngHkjji-11" vertex="1">
          <mxGeometry y="112" width="160" height="26" as="geometry" />
        </mxCell>
        <mxCell id="y8SY3zgBV_V-2ngHkjji-53" value="+ Getters &amp; Setter" style="text;strokeColor=none;fillColor=none;align=left;verticalAlign=top;spacingLeft=4;spacingRight=4;overflow=hidden;rotatable=0;points=[[0,0.5],[1,0.5]];portConstraint=eastwest;" parent="y8SY3zgBV_V-2ngHkjji-11" vertex="1">
          <mxGeometry y="138" width="160" height="26" as="geometry" />
        </mxCell>
        <mxCell id="MSI8PUPeQ2H2KWC3Pi9Z-28" value="1*" style="text;html=1;align=center;verticalAlign=middle;resizable=0;points=[];autosize=1;" vertex="1" parent="MSI8PUPeQ2H2KWC3Pi9Z-33">
          <mxGeometry x="34" y="-6" width="30" height="20" as="geometry" />
        </mxCell>
        <mxCell id="MSI8PUPeQ2H2KWC3Pi9Z-35" value="" style="endArrow=none;html=1;rounded=0;exitX=1;exitY=0.078;exitDx=0;exitDy=0;exitPerimeter=0;entryX=0;entryY=0.5;entryDx=0;entryDy=0;" edge="1" parent="WIyWlLk6GJQsqaUBKTNV-1" source="y8SY3zgBV_V-2ngHkjji-119" target="y8SY3zgBV_V-2ngHkjji-139">
          <mxGeometry relative="1" as="geometry">
            <mxPoint x="-220" y="180" as="sourcePoint" />
            <mxPoint x="-60" y="180" as="targetPoint" />
          </mxGeometry>
        </mxCell>
        <mxCell id="MSI8PUPeQ2H2KWC3Pi9Z-39" value="&lt;div&gt;&amp;lt;&amp;lt;Abstract Class&amp;gt;&amp;gt;&lt;br&gt;&lt;/div&gt;&lt;div&gt;UserDetailsService&lt;br&gt;&lt;/div&gt;" style="swimlane;fontStyle=1;align=center;verticalAlign=middle;childLayout=stackLayout;horizontal=1;startSize=29;horizontalStack=0;resizeParent=1;resizeParentMax=0;resizeLast=0;collapsible=0;marginBottom=0;html=1;" vertex="1" parent="WIyWlLk6GJQsqaUBKTNV-1">
          <mxGeometry x="210" y="206" width="140" height="54" as="geometry" />
        </mxCell>
        <mxCell id="MSI8PUPeQ2H2KWC3Pi9Z-22" value="" style="endArrow=none;html=1;rounded=0;exitX=1;exitY=0.5;exitDx=0;exitDy=0;entryX=0;entryY=0.25;entryDx=0;entryDy=0;" edge="1" parent="WIyWlLk6GJQsqaUBKTNV-1" source="y8SY3zgBV_V-2ngHkjji-33" target="y8SY3zgBV_V-2ngHkjji-19">
          <mxGeometry relative="1" as="geometry">
            <mxPoint x="160" y="76" as="sourcePoint" />
            <mxPoint x="320" y="76" as="targetPoint" />
          </mxGeometry>
        </mxCell>
        <mxCell id="MSI8PUPeQ2H2KWC3Pi9Z-42" value="" style="endArrow=none;html=1;rounded=0;exitX=1;exitY=0.5;exitDx=0;exitDy=0;entryX=0;entryY=0.25;entryDx=0;entryDy=0;" edge="1" parent="WIyWlLk6GJQsqaUBKTNV-1" source="y8SY3zgBV_V-2ngHkjji-54" target="y8SY3zgBV_V-2ngHkjji-55">
          <mxGeometry relative="1" as="geometry">
            <mxPoint x="710" y="-160" as="sourcePoint" />
            <mxPoint x="870" y="-160" as="targetPoint" />
          </mxGeometry>
        </mxCell>
        <mxCell id="MSI8PUPeQ2H2KWC3Pi9Z-44" value="1" style="text;html=1;align=center;verticalAlign=middle;resizable=0;points=[];autosize=1;" vertex="1" parent="WIyWlLk6GJQsqaUBKTNV-1">
          <mxGeometry x="-55" y="80" width="20" height="20" as="geometry" />
        </mxCell>
        <mxCell id="MSI8PUPeQ2H2KWC3Pi9Z-48" value="" style="endArrow=none;html=1;rounded=0;exitX=0.5;exitY=0;exitDx=0;exitDy=0;" edge="1" parent="WIyWlLk6GJQsqaUBKTNV-1" source="y8SY3zgBV_V-2ngHkjji-119" target="MSI8PUPeQ2H2KWC3Pi9Z-0">
          <mxGeometry relative="1" as="geometry">
            <mxPoint x="-500" y="10" as="sourcePoint" />
            <mxPoint x="-340" y="10" as="targetPoint" />
          </mxGeometry>
        </mxCell>
        <mxCell id="MSI8PUPeQ2H2KWC3Pi9Z-50" value="1" style="text;html=1;align=center;verticalAlign=middle;resizable=0;points=[];autosize=1;" vertex="1" parent="WIyWlLk6GJQsqaUBKTNV-1">
          <mxGeometry x="-470" y="-8" width="20" height="20" as="geometry" />
        </mxCell>
        <mxCell id="MSI8PUPeQ2H2KWC3Pi9Z-52" value="" style="endArrow=none;html=1;rounded=0;exitX=1;exitY=0.25;exitDx=0;exitDy=0;entryX=0;entryY=0.5;entryDx=0;entryDy=0;" edge="1" parent="WIyWlLk6GJQsqaUBKTNV-1" source="y8SY3zgBV_V-2ngHkjji-219" target="MSI8PUPeQ2H2KWC3Pi9Z-10">
          <mxGeometry relative="1" as="geometry">
            <mxPoint x="-442.00000000000045" y="140" as="sourcePoint" />
            <mxPoint x="-441.1585365853657" y="2" as="targetPoint" />
          </mxGeometry>
        </mxCell>
        <mxCell id="MSI8PUPeQ2H2KWC3Pi9Z-53" value="1" style="text;html=1;align=center;verticalAlign=middle;resizable=0;points=[];autosize=1;" vertex="1" parent="WIyWlLk6GJQsqaUBKTNV-1">
          <mxGeometry x="-710" y="-210" width="20" height="20" as="geometry" />
        </mxCell>
        <mxCell id="MSI8PUPeQ2H2KWC3Pi9Z-54" value="1" style="text;html=1;align=center;verticalAlign=middle;resizable=0;points=[];autosize=1;" vertex="1" parent="WIyWlLk6GJQsqaUBKTNV-1">
          <mxGeometry x="-650" y="-183" width="20" height="20" as="geometry" />
        </mxCell>
        <mxCell id="MSI8PUPeQ2H2KWC3Pi9Z-55" value="" style="endArrow=none;html=1;rounded=0;entryX=0.51;entryY=1.068;entryDx=0;entryDy=0;exitX=0.5;exitY=0;exitDx=0;exitDy=0;entryPerimeter=0;" edge="1" parent="WIyWlLk6GJQsqaUBKTNV-1" source="y8SY3zgBV_V-2ngHkjji-160" target="y8SY3zgBV_V-2ngHkjji-150">
          <mxGeometry relative="1" as="geometry">
            <mxPoint x="-294.00000000000045" y="389.0000000000002" as="sourcePoint" />
            <mxPoint x="-220" y="179" as="targetPoint" />
          </mxGeometry>
        </mxCell>
        <mxCell id="MSI8PUPeQ2H2KWC3Pi9Z-57" value="" style="endArrow=none;html=1;rounded=0;exitX=0.5;exitY=0;exitDx=0;exitDy=0;" edge="1" parent="WIyWlLk6GJQsqaUBKTNV-1" source="y8SY3zgBV_V-2ngHkjji-179" target="y8SY3zgBV_V-2ngHkjji-200">
          <mxGeometry relative="1" as="geometry">
            <mxPoint x="-60" y="120" as="sourcePoint" />
            <mxPoint x="100" y="120" as="targetPoint" />
          </mxGeometry>
        </mxCell>
        <mxCell id="MSI8PUPeQ2H2KWC3Pi9Z-58" value="1" style="text;html=1;align=center;verticalAlign=middle;resizable=0;points=[];autosize=1;" vertex="1" parent="WIyWlLk6GJQsqaUBKTNV-1">
          <mxGeometry x="-55" y="46" width="20" height="20" as="geometry" />
        </mxCell>
        <mxCell id="MSI8PUPeQ2H2KWC3Pi9Z-60" value="Extends" style="endArrow=block;endSize=16;endFill=0;html=1;exitX=1;exitY=0.155;exitDx=0;exitDy=0;exitPerimeter=0;entryX=0;entryY=0.25;entryDx=0;entryDy=0;" edge="1" parent="WIyWlLk6GJQsqaUBKTNV-1" source="y8SY3zgBV_V-2ngHkjji-179" target="MSI8PUPeQ2H2KWC3Pi9Z-39">
          <mxGeometry width="160" relative="1" as="geometry">
            <mxPoint x="-370" y="190" as="sourcePoint" />
            <mxPoint x="-210" y="190" as="targetPoint" />
          </mxGeometry>
        </mxCell>
        <mxCell id="MSI8PUPeQ2H2KWC3Pi9Z-61" value="1" style="text;html=1;align=center;verticalAlign=middle;resizable=0;points=[];autosize=1;" vertex="1" parent="WIyWlLk6GJQsqaUBKTNV-1">
          <mxGeometry x="-470" y="46" width="20" height="20" as="geometry" />
        </mxCell>
        <mxCell id="MSI8PUPeQ2H2KWC3Pi9Z-62" value="1" style="text;html=1;align=center;verticalAlign=middle;resizable=0;points=[];autosize=1;" vertex="1" parent="WIyWlLk6GJQsqaUBKTNV-1">
          <mxGeometry x="-300" y="66" width="20" height="20" as="geometry" />
        </mxCell>
        <mxCell id="MSI8PUPeQ2H2KWC3Pi9Z-63" value="1" style="text;html=1;align=center;verticalAlign=middle;resizable=0;points=[];autosize=1;" vertex="1" parent="WIyWlLk6GJQsqaUBKTNV-1">
          <mxGeometry x="-250" y="226" width="20" height="20" as="geometry" />
        </mxCell>
        <mxCell id="MSI8PUPeQ2H2KWC3Pi9Z-64" value="" style="endArrow=none;html=1;rounded=0;exitX=0;exitY=0.5;exitDx=0;exitDy=0;" edge="1" parent="WIyWlLk6GJQsqaUBKTNV-1" source="y8SY3zgBV_V-2ngHkjji-129" target="y8SY3zgBV_V-2ngHkjji-97">
          <mxGeometry relative="1" as="geometry">
            <mxPoint x="-292.5" y="90.97600000000011" as="sourcePoint" />
            <mxPoint x="-220" y="305" as="targetPoint" />
          </mxGeometry>
        </mxCell>
        <mxCell id="MSI8PUPeQ2H2KWC3Pi9Z-65" value="1" style="text;html=1;align=center;verticalAlign=middle;resizable=0;points=[];autosize=1;" vertex="1" parent="WIyWlLk6GJQsqaUBKTNV-1">
          <mxGeometry x="-650" y="270" width="20" height="20" as="geometry" />
        </mxCell>
        <mxCell id="MSI8PUPeQ2H2KWC3Pi9Z-66" value="1" style="text;html=1;align=center;verticalAlign=middle;resizable=0;points=[];autosize=1;" vertex="1" parent="WIyWlLk6GJQsqaUBKTNV-1">
          <mxGeometry x="-618.5" y="206" width="20" height="20" as="geometry" />
        </mxCell>
        <mxCell id="MSI8PUPeQ2H2KWC3Pi9Z-68" value="" style="endArrow=none;html=1;rounded=0;entryX=0;entryY=0.5;entryDx=0;entryDy=0;" edge="1" parent="WIyWlLk6GJQsqaUBKTNV-1" source="y8SY3zgBV_V-2ngHkjji-74" target="MSI8PUPeQ2H2KWC3Pi9Z-5">
          <mxGeometry relative="1" as="geometry">
            <mxPoint x="-700" y="-181.5" as="sourcePoint" />
            <mxPoint x="-620" y="-145" as="targetPoint" />
          </mxGeometry>
        </mxCell>
        <mxCell id="MSI8PUPeQ2H2KWC3Pi9Z-69" value="1" style="text;html=1;align=center;verticalAlign=middle;resizable=0;points=[];autosize=1;" vertex="1" parent="WIyWlLk6GJQsqaUBKTNV-1">
          <mxGeometry x="-757" y="-40" width="20" height="20" as="geometry" />
        </mxCell>
        <mxCell id="MSI8PUPeQ2H2KWC3Pi9Z-70" value="1" style="text;html=1;align=center;verticalAlign=middle;resizable=0;points=[];autosize=1;" vertex="1" parent="WIyWlLk6GJQsqaUBKTNV-1">
          <mxGeometry x="-650" y="-40" width="20" height="20" as="geometry" />
        </mxCell>
        <mxCell id="MSI8PUPeQ2H2KWC3Pi9Z-71" value="" style="endArrow=none;html=1;rounded=0;exitX=1.005;exitY=0.081;exitDx=0;exitDy=0;exitPerimeter=0;" edge="1" parent="WIyWlLk6GJQsqaUBKTNV-1" source="y8SY3zgBV_V-2ngHkjji-90" target="MSI8PUPeQ2H2KWC3Pi9Z-0">
          <mxGeometry relative="1" as="geometry">
            <mxPoint x="-700" y="-181.5" as="sourcePoint" />
            <mxPoint x="-620" y="-145" as="targetPoint" />
          </mxGeometry>
        </mxCell>
        <mxCell id="MSI8PUPeQ2H2KWC3Pi9Z-72" value="1" style="text;html=1;align=center;verticalAlign=middle;resizable=0;points=[];autosize=1;" vertex="1" parent="WIyWlLk6GJQsqaUBKTNV-1">
          <mxGeometry x="-757" y="-380" width="20" height="20" as="geometry" />
        </mxCell>
        <mxCell id="MSI8PUPeQ2H2KWC3Pi9Z-73" value="1" style="text;html=1;align=center;verticalAlign=middle;resizable=0;points=[];autosize=1;" vertex="1" parent="WIyWlLk6GJQsqaUBKTNV-1">
          <mxGeometry x="-614" y="-244" width="20" height="20" as="geometry" />
        </mxCell>
        <mxCell id="MSI8PUPeQ2H2KWC3Pi9Z-74" value="" style="endArrow=none;html=1;rounded=0;entryX=0.128;entryY=1.115;entryDx=0;entryDy=0;entryPerimeter=0;exitX=1.014;exitY=0.134;exitDx=0;exitDy=0;exitPerimeter=0;" edge="1" parent="WIyWlLk6GJQsqaUBKTNV-1" source="y8SY3zgBV_V-2ngHkjji-82" target="MSI8PUPeQ2H2KWC3Pi9Z-5">
          <mxGeometry relative="1" as="geometry">
            <mxPoint x="-747" y="-8.229090909090928" as="sourcePoint" />
            <mxPoint x="-620" y="-11" as="targetPoint" />
          </mxGeometry>
        </mxCell>
        <mxCell id="MSI8PUPeQ2H2KWC3Pi9Z-75" value="1" style="text;html=1;align=center;verticalAlign=middle;resizable=0;points=[];autosize=1;" vertex="1" parent="WIyWlLk6GJQsqaUBKTNV-1">
          <mxGeometry x="-764" y="110" width="20" height="20" as="geometry" />
        </mxCell>
        <mxCell id="MSI8PUPeQ2H2KWC3Pi9Z-76" value="1" style="text;html=1;align=center;verticalAlign=middle;resizable=0;points=[];autosize=1;" vertex="1" parent="WIyWlLk6GJQsqaUBKTNV-1">
          <mxGeometry x="-620" y="-8" width="20" height="20" as="geometry" />
        </mxCell>
        <mxCell id="MSI8PUPeQ2H2KWC3Pi9Z-77" value="" style="endArrow=none;html=1;rounded=0;exitX=0.66;exitY=0.002;exitDx=0;exitDy=0;exitPerimeter=0;" edge="1" parent="WIyWlLk6GJQsqaUBKTNV-1" source="y8SY3zgBV_V-2ngHkjji-3" target="y8SY3zgBV_V-2ngHkjji-229">
          <mxGeometry relative="1" as="geometry">
            <mxPoint x="491.99999999999955" y="-19" as="sourcePoint" />
            <mxPoint x="566.9999999999995" y="-194" as="targetPoint" />
          </mxGeometry>
        </mxCell>
        <mxCell id="MSI8PUPeQ2H2KWC3Pi9Z-78" value="" style="endArrow=none;html=1;rounded=0;" edge="1" parent="WIyWlLk6GJQsqaUBKTNV-1" target="y8SY3zgBV_V-2ngHkjji-229">
          <mxGeometry relative="1" as="geometry">
            <mxPoint x="556.9999999999995" y="-421.4775725593669" as="sourcePoint" />
            <mxPoint x="389.76711280390145" y="-306" as="targetPoint" />
          </mxGeometry>
        </mxCell>
        <mxCell id="MSI8PUPeQ2H2KWC3Pi9Z-79" value="" style="endArrow=none;html=1;rounded=0;" edge="1" parent="WIyWlLk6GJQsqaUBKTNV-1" source="MSI8PUPeQ2H2KWC3Pi9Z-13" target="y8SY3zgBV_V-2ngHkjji-229">
          <mxGeometry relative="1" as="geometry">
            <mxPoint x="624" y="-375.8764629388817" as="sourcePoint" />
            <mxPoint x="567.0000000000005" y="-390.8491547464239" as="targetPoint" />
          </mxGeometry>
        </mxCell>
        <mxCell id="MSI8PUPeQ2H2KWC3Pi9Z-80" value="" style="endArrow=none;html=1;rounded=0;" edge="1" parent="WIyWlLk6GJQsqaUBKTNV-1" source="y8SY3zgBV_V-2ngHkjji-229" target="y8SY3zgBV_V-2ngHkjji-200">
          <mxGeometry relative="1" as="geometry">
            <mxPoint x="634" y="-365.8764629388817" as="sourcePoint" />
            <mxPoint x="577.0000000000005" y="-380.8491547464239" as="targetPoint" />
          </mxGeometry>
        </mxCell>
        <mxCell id="MSI8PUPeQ2H2KWC3Pi9Z-81" value="" style="endArrow=none;html=1;rounded=0;" edge="1" parent="WIyWlLk6GJQsqaUBKTNV-1" source="MSI8PUPeQ2H2KWC3Pi9Z-17" target="MSI8PUPeQ2H2KWC3Pi9Z-0">
          <mxGeometry relative="1" as="geometry">
            <mxPoint x="-745.5200000000004" y="-383.7159999999999" as="sourcePoint" />
            <mxPoint x="-559.1181566780451" y="-214" as="targetPoint" />
          </mxGeometry>
        </mxCell>
        <mxCell id="MSI8PUPeQ2H2KWC3Pi9Z-82" value="1" style="text;html=1;align=center;verticalAlign=middle;resizable=0;points=[];autosize=1;" vertex="1" parent="WIyWlLk6GJQsqaUBKTNV-1">
          <mxGeometry x="-480" y="-350" width="20" height="20" as="geometry" />
        </mxCell>
        <mxCell id="MSI8PUPeQ2H2KWC3Pi9Z-83" value="1" style="text;html=1;align=center;verticalAlign=middle;resizable=0;points=[];autosize=1;" vertex="1" parent="WIyWlLk6GJQsqaUBKTNV-1">
          <mxGeometry x="-480" y="-244" width="20" height="20" as="geometry" />
        </mxCell>
        <mxCell id="MSI8PUPeQ2H2KWC3Pi9Z-86" value="1" style="text;html=1;align=center;verticalAlign=middle;resizable=0;points=[];autosize=1;" vertex="1" parent="WIyWlLk6GJQsqaUBKTNV-1">
          <mxGeometry x="100" y="-252" width="20" height="20" as="geometry" />
        </mxCell>
        <mxCell id="MSI8PUPeQ2H2KWC3Pi9Z-87" value="1" style="text;html=1;align=center;verticalAlign=middle;resizable=0;points=[];autosize=1;" vertex="1" parent="WIyWlLk6GJQsqaUBKTNV-1">
          <mxGeometry x="186" y="-316" width="20" height="20" as="geometry" />
        </mxCell>
        <mxCell id="MSI8PUPeQ2H2KWC3Pi9Z-88" value="1" style="text;html=1;align=center;verticalAlign=middle;resizable=0;points=[];autosize=1;" vertex="1" parent="WIyWlLk6GJQsqaUBKTNV-1">
          <mxGeometry x="360" y="-316" width="20" height="20" as="geometry" />
        </mxCell>
        <mxCell id="MSI8PUPeQ2H2KWC3Pi9Z-89" value="1" style="text;html=1;align=center;verticalAlign=middle;resizable=0;points=[];autosize=1;" vertex="1" parent="WIyWlLk6GJQsqaUBKTNV-1">
          <mxGeometry x="360" y="-244" width="20" height="20" as="geometry" />
        </mxCell>
        <mxCell id="MSI8PUPeQ2H2KWC3Pi9Z-91" value="" style="endArrow=none;html=1;rounded=0;" edge="1" parent="WIyWlLk6GJQsqaUBKTNV-1" source="y8SY3zgBV_V-2ngHkjji-59" target="y8SY3zgBV_V-2ngHkjji-229">
          <mxGeometry relative="1" as="geometry">
            <mxPoint x="614" y="-385.8764629388817" as="sourcePoint" />
            <mxPoint x="576.9999999999995" y="-416.2564102564103" as="targetPoint" />
          </mxGeometry>
        </mxCell>
        <mxCell id="MSI8PUPeQ2H2KWC3Pi9Z-92" value="1" style="text;html=1;align=center;verticalAlign=middle;resizable=0;points=[];autosize=1;" vertex="1" parent="WIyWlLk6GJQsqaUBKTNV-1">
          <mxGeometry x="594" y="-390" width="20" height="20" as="geometry" />
        </mxCell>
        <mxCell id="MSI8PUPeQ2H2KWC3Pi9Z-93" value="1" style="text;html=1;align=center;verticalAlign=middle;resizable=0;points=[];autosize=1;" vertex="1" parent="WIyWlLk6GJQsqaUBKTNV-1">
          <mxGeometry x="557" y="-420" width="20" height="20" as="geometry" />
        </mxCell>
        <mxCell id="MSI8PUPeQ2H2KWC3Pi9Z-94" value="1" style="text;html=1;align=center;verticalAlign=middle;resizable=0;points=[];autosize=1;" vertex="1" parent="WIyWlLk6GJQsqaUBKTNV-1">
          <mxGeometry x="557" y="-530" width="20" height="20" as="geometry" />
        </mxCell>
        <mxCell id="MSI8PUPeQ2H2KWC3Pi9Z-95" value="1" style="text;html=1;align=center;verticalAlign=middle;resizable=0;points=[];autosize=1;" vertex="1" parent="WIyWlLk6GJQsqaUBKTNV-1">
          <mxGeometry x="624" y="-550" width="20" height="20" as="geometry" />
        </mxCell>
      </root>
    </mxGraphModel>
  </diagram>
</mxfile>
